<?xml version="1.0" encoding="UTF-8" standalone="no"?><!-- Generator: Gravit.io --><svg xmlns="http://www.w3.org/2000/svg" xmlns:xlink="http://www.w3.org/1999/xlink" style="isolation:isolate" viewBox="0 0 512 512" width="512pt" height="512pt"><defs><clipPath id="_clipPath_uX0m0xJ9iY8i5568nkd6aSGXVl2vKNrC"><rect width="512" height="512"/></clipPath></defs><g clip-path="url(#_clipPath_uX0m0xJ9iY8i5568nkd6aSGXVl2vKNrC)"><path d="M 86.269 156 L 425.731 156 C 432.503 156 438 161.497 438 168.269 L 438 185.398 C 438 192.169 432.503 197.667 425.731 197.667 L 86.269 197.667 C 79.497 197.667 74 192.169 74 185.398 L 74 168.269 C 74 161.497 79.497 156 86.269 156 Z" style="stroke:none;fill:#000000;stroke-miterlimit:10;"/><path d="M 86.269 232.894 L 425.731 232.894 C 432.503 232.894 438 238.391 438 245.163 L 438 262.292 C 438 269.063 432.503 274.561 425.731 274.561 L 86.269 274.561 C 79.497 274.561 74 269.063 74 262.292 L 74 245.163 C 74 238.391 79.497 232.894 86.269 232.894 Z" style="stroke:none;fill:#000000;stroke-miterlimit:10;"/><path d="M 86.269 314.333 L 425.731 314.333 C 432.503 314.333 438 319.831 438 326.602 L 438 343.731 C 438 350.503 432.503 356 425.731 356 L 86.269 356 C 79.497 356 74 350.503 74 343.731 L 74 326.602 C 74 319.831 79.497 314.333 86.269 314.333 Z" style="stroke:none;fill:#000000;stroke-miterlimit:10;"/></g></svg>