<?xml version="1.0" encoding="UTF-8" standalone="no"?><!-- Generator: Gravit.io --><svg xmlns="http://www.w3.org/2000/svg" xmlns:xlink="http://www.w3.org/1999/xlink" style="isolation:isolate" viewBox="0 0 176.57 79.851" width="176.57pt" height="79.851pt"><defs><clipPath id="_clipPath_dEu6b0MEn8DKMwwizYRJU5f5fiRA9PuK"><rect width="176.57" height="79.851"/></clipPath></defs><g clip-path="url(#_clipPath_dEu6b0MEn8DKMwwizYRJU5f5fiRA9PuK)"><rect width="176.57" height="79.851" style="fill:rgb(0,0,0)" fill-opacity="0"/><path d=" M 89.187 30.859 L 28.656 1.956 C 18.682 -2.806 6.719 1.425 1.956 11.399 L 1.956 11.399 C -2.806 21.372 1.425 33.336 11.399 38.098 L 72.405 67.227 C 75.313 68.616 78.389 69.24 81.407 69.175 C 83.104 69.944 84.943 70.473 86.884 70.732 L 153.895 79.673 C 164.85 81.135 174.931 73.428 176.392 62.473 L 176.392 62.473 C 177.854 51.517 170.147 41.437 159.191 39.975 L 92.181 31.034 C 91.174 30.9 90.174 30.843 89.187 30.859 Z " fill="rgb(255,255,255)"/></g></svg>