<?xml version="1.0" encoding="UTF-8" standalone="no"?><!-- Generator: Gravit.io --><svg xmlns="http://www.w3.org/2000/svg" xmlns:xlink="http://www.w3.org/1999/xlink" style="isolation:isolate" viewBox="0 0 512 512" width="512pt" height="512pt"><defs><clipPath id="_clipPath_moy3IIOV0WmZRIjx07ObcL31dkP10QvD"><rect width="512" height="512"/></clipPath></defs><g clip-path="url(#_clipPath_moy3IIOV0WmZRIjx07ObcL31dkP10QvD)"><rect width="512" height="512" style="fill:rgb(0,0,0)" fill-opacity="0"/><circle vector-effect="non-scaling-stroke" cx="234.99999999999994" cy="107" r="60" fill="rgb(255,255,255)"/><path d="M 194.502 161.499 L 194.502 161.499 C 217.145 169.023 228.989 194.808 220.936 219.045 L 183.6 331.406 C 175.547 355.642 150.626 369.211 127.983 361.687 L 127.983 361.687 C 105.341 354.164 93.497 328.379 101.55 304.142 L 138.885 191.781 C 146.939 167.544 171.86 153.976 194.502 161.499 Z" style="stroke:none;fill:#FFFFFF;stroke-miterlimit:10;"/><path d="M 128.632 307.491 L 248.459 306.575 C 264.228 306.454 277.097 315.158 277.18 326 L 277.18 326 C 277.263 336.842 264.528 345.742 248.76 345.862 L 128.933 346.779 C 113.164 346.899 100.295 338.195 100.212 327.354 L 100.212 327.354 C 100.129 316.512 112.864 307.612 128.632 307.491 Z" style="stroke:none;fill:#FFFFFF;stroke-miterlimit:10;"/><path d="M 277.177 328.004 L 275.257 448.528 C 275.074 459.99 266.523 469.163 256.173 468.998 L 256.173 468.998 C 245.823 468.833 237.568 459.393 237.751 447.93 L 239.672 327.407 C 239.854 315.944 248.405 306.771 258.755 306.936 L 258.755 306.936 C 269.105 307.101 277.36 316.542 277.177 328.004 Z" style="stroke:none;fill:#FFFFFF;stroke-miterlimit:10;"/><path d="M 67.672 338 L 217.099 338 C 221.511 338 225.092 341.582 225.092 345.994 L 225.092 359.006 C 225.092 363.418 221.511 367 217.099 367 L 67.672 367 C 63.26 367 59.678 363.418 59.678 359.006 L 59.678 345.994 C 59.678 341.582 63.26 338 67.672 338 Z" style="stroke:none;fill:#FFFFFF;stroke-miterlimit:10;"/><path d=" M 29 257.434 Q 29 215.598 37.154 160.374 C 38.173 153.471 44.665 147.867 51.642 147.867 L 81.109 147.867 C 88.086 147.867 91.948 153.238 89.729 159.852 Q 74 206.725 74 257.434 Q 74 308.142 89.729 355.015 C 91.948 361.63 88.086 367 81.109 367 L 51.642 367 C 44.665 367 38.173 361.396 37.154 354.494 Q 29 299.269 29 257.434 Z " fill="rgb(255,255,255)"/><path d="M 137.55 346.716 L 161.542 346.716 C 165.118 346.716 168.021 349.619 168.021 353.195 L 168.021 425.521 C 168.021 429.097 165.118 432 161.542 432 L 137.55 432 C 133.974 432 131.071 429.097 131.071 425.521 L 131.071 353.195 C 131.071 349.619 133.974 346.716 137.55 346.716 Z" style="stroke:none;fill:#FFFFFF;stroke-miterlimit:10;"/><path d="M 147.647 422 L 151.445 422 C 152.891 422 154.064 423.174 154.064 424.619 L 154.064 476.381 C 154.064 477.826 152.891 479 151.445 479 L 147.647 479 C 146.202 479 145.028 477.826 145.028 476.381 L 145.028 424.619 C 145.028 423.174 146.202 422 147.647 422 Z" style="stroke:none;fill:#FFFFFF;stroke-miterlimit:10;"/><path d="M 132.437 417.328 L 135.731 419.218 C 136.985 419.938 137.418 421.54 136.698 422.794 L 110.929 467.685 C 110.21 468.938 108.607 469.372 107.354 468.652 L 104.06 466.762 C 102.806 466.042 102.373 464.44 103.092 463.186 L 128.861 418.295 C 129.581 417.041 131.183 416.608 132.437 417.328 Z" style="stroke:none;fill:#FFFFFF;stroke-miterlimit:10;"/><path d="M 159.106 419.23 L 162.394 417.331 C 163.646 416.608 165.25 417.038 165.973 418.29 L 191.853 463.116 C 192.576 464.368 192.146 465.971 190.894 466.694 L 187.606 468.593 C 186.354 469.316 184.75 468.886 184.027 467.634 L 158.147 422.808 C 157.424 421.556 157.854 419.952 159.106 419.23 Z" style="stroke:none;fill:#FFFFFF;stroke-miterlimit:10;"/><path d="M 139.627 459 L 159.465 459 C 160.89 459 162.046 460.156 162.046 461.581 L 162.046 476.419 C 162.046 477.844 160.89 479 159.465 479 L 139.627 479 C 138.203 479 137.046 477.844 137.046 476.419 L 137.046 461.581 C 137.046 460.156 138.203 459 139.627 459 Z" style="stroke:none;fill:#FFFFFF;stroke-miterlimit:10;"/><path d="M 96.331 459 L 116.17 459 C 117.594 459 118.751 460.156 118.751 461.581 L 118.751 476.419 C 118.751 477.844 117.594 479 116.17 479 L 96.331 479 C 94.907 479 93.751 477.844 93.751 476.419 L 93.751 461.581 C 93.751 460.156 94.907 459 96.331 459 Z" style="stroke:none;fill:#FFFFFF;stroke-miterlimit:10;"/><path d="M 182.923 459 L 202.761 459 C 204.185 459 205.342 460.156 205.342 461.581 L 205.342 476.419 C 205.342 477.844 204.185 479 202.761 479 L 182.923 479 C 181.498 479 180.342 477.844 180.342 476.419 L 180.342 461.581 C 180.342 460.156 181.498 459 182.923 459 Z" style="stroke:none;fill:#FFFFFF;stroke-miterlimit:10;"/><rect x="295" y="261.593" width="188" height="27.407" transform="matrix(1,0,0,1,0,0)" fill="rgb(255,255,255)"/><rect x="377" y="267" width="32" height="212" transform="matrix(1,0,0,1,0,0)" fill="rgb(255,255,255)"/><rect x="357.5" y="459" width="71" height="20" transform="matrix(1,0,0,1,0,0)" fill="rgb(255,255,255)"/><rect x="438" y="107" width="11" height="132.434" transform="matrix(1,0,0,1,0,0)" fill="rgb(255,255,255)"/><path d="M 451.75 116.249 L 451.75 116.249 C 456.303 116.249 460 119.946 460 124.499 L 460 221.935 C 460 226.488 456.303 230.185 451.75 230.185 L 451.75 230.185 C 447.197 230.185 443.5 226.488 443.5 221.935 L 443.5 124.499 C 443.5 119.946 447.197 116.249 451.75 116.249 Z" style="stroke:none;fill:#FFFFFF;stroke-miterlimit:10;"/><rect x="460" y="159.423" width="8" height="102.17" transform="matrix(1,0,0,1,0,0)" fill="rgb(255,255,255)"/><rect x="438" y="257.434" width="45" height="9.566" transform="matrix(1,0,0,1,0,0)" fill="rgb(255,255,255)"/><rect x="295" y="253.438" width="82" height="8.779" transform="matrix(1,0,0,1,0,0)" fill="rgb(255,255,255)"/></g></svg>